<svg id="Layer_1" data-name="Layer 1" xmlns="http://www.w3.org/2000/svg" viewBox="0 0 160.35749 64.8867">
  <title>savi-logo</title>
  <circle cx="135.02837" cy="7.9477" r="7.94872"/>
  <rect x="128.4571" y="18.7578" width="13.1426" height="44.957"/>
  <path d="M105.6036,47.8085,97.2305,18.7578H74.6055v5.0254c-3.0137-3.8516-7.1992-5.6934-12.6406-5.6934a20.88027,20.88027,0,0,0-14.9844,6.1953,23.99533,23.99533,0,0,0-4.4648,5.8242c-.9414-7.8711-6.75-12.6894-15.625-12.6894-10.7129,0-17.1621,6.1953-17.1621,14.9843,0,6.7813,3.7695,10.9688,11.5527,13.3946,5.6094,1.7558,9.2109,1.5918,9.2109,5.2734,0,2.5137-1.6757,3.9356-4.5215,3.9356-2.8476,0-4.8574-1.7598-4.8574-4.2676v-.4199H8.6407c.9218,9.125,7.1172,14.5664,17.1621,14.5664,9.1152,0,15.5664-4.5899,17.4297-11.3887a23.85736,23.85736,0,0,0,4.4179,5.1934,20.3991,20.3991,0,0,0,14.0625,5.2714c5.3575,0,9.377-1.4199,13.3086-5.2714v5.0234H87.834V32.9746L98.8223,63.7148h13.3106l16.3242-44.957H114.4766Z"/>
  <path d="M39.8028,40.2656c-2.291-1.8848-5.5528-3.2676-9.8145-4.4278-4.6035-1.2578-7.3652-2.0117-7.3652-5.1074,0-2.1777,1.5059-3.6836,4.1016-3.6836,2.3437,0,3.4316,1.2539,3.9335,4.1856H41.9454A22.61059,22.61059,0,0,0,39.8028,40.2656Z" style="fill: #fff"/>
  <path d="M64.6426,51.9941c-6.7812,0-11.6347-4.7715-11.6347-11.0508A11.12946,11.12946,0,0,1,64.1426,29.8085,10.926,10.926,0,0,1,75.1094,41.1113,10.61849,10.61849,0,0,1,64.6426,51.9941Z" style="fill: #fff"/>
  <g>
    <polygon points="2.879 59.566 1.932 59.566 1.932 63.713 0.949 63.713 0.949 59.566 0 59.566 0 58.682 2.879 58.682 2.879 59.566"/>
    <polygon points="3.34 63.713 3.34 58.682 4.643 58.682 5.924 62.34 7.197 58.682 8.5 58.682 8.5 63.713 7.529 63.713 7.566 60.063 6.291 63.713 5.549 63.713 4.274 60.063 4.316 63.713 3.34 63.713"/>
  </g>
  <circle cx="152.4102" cy="55.7641" r="7.9473"/>
</svg>
